<svg xmlns="http://www.w3.org/2000/svg" viewBox="0 0 1600 420" role="presentation">
  <rect width="1600" height="420" fill="#000000" />
  <!-- stage -->
  <rect x="620" y="40" width="360" height="150" fill="none" stroke="#22c55e" stroke-width="3" rx="4" />
  <rect x="650" y="70" width="140" height="6" fill="#22c55e" opacity="0.8" />
  <rect x="650" y="92" width="230" height="4" fill="#34343d" />
  <rect x="650" y="110" width="188" height="4" fill="#34343d" />
  <rect x="650" y="128" width="216" height="4" fill="#34343d" />
  <!-- seating rows, running past both edges -->
  <g stroke="#34343d" stroke-linecap="square">
    <path d="M400 232h800" stroke-width="2" opacity="0.9" />
    <path d="M300 268h1000" stroke-width="2" opacity="0.8" />
    <path d="M180 306h1240" stroke-width="2" opacity="0.65" />
    <path d="M40 346h1520" stroke-width="2" opacity="0.5" />
    <path d="M-40 390h1680" stroke-width="2" opacity="0.35" />
  </g>
  <g fill="#f4f4f6" opacity="0.3">
    <rect x="430" y="224" width="9" height="9" /><rect x="500" y="224" width="9" height="9" />
    <rect x="610" y="224" width="9" height="9" /><rect x="740" y="224" width="9" height="9" />
    <rect x="900" y="224" width="9" height="9" /><rect x="1050" y="224" width="9" height="9" />
    <rect x="340" y="260" width="9" height="9" /><rect x="470" y="260" width="9" height="9" />
    <rect x="660" y="260" width="9" height="9" /><rect x="880" y="260" width="9" height="9" />
    <rect x="1010" y="260" width="9" height="9" /><rect x="1220" y="260" width="9" height="9" />
    <rect x="220" y="298" width="9" height="9" /><rect x="520" y="298" width="9" height="9" />
    <rect x="820" y="298" width="9" height="9" /><rect x="1120" y="298" width="9" height="9" />
    <rect x="1340" y="298" width="9" height="9" /><rect x="120" y="338" width="9" height="9" />
    <rect x="640" y="338" width="9" height="9" /><rect x="960" y="338" width="9" height="9" />
    <rect x="1420" y="338" width="9" height="9" />
  </g>
  <g fill="#22c55e">
    <rect x="800" y="224" width="9" height="9" />
    <rect x="760" y="298" width="9" height="9" />
    <rect x="1180" y="338" width="9" height="9" opacity="0.6" />
  </g>
</svg>
